<?xml version="1.0" encoding="utf-8"?>
<!-- Generator: Adobe Illustrator 24.1.2, SVG Export Plug-In . SVG Version: 6.00 Build 0)  -->
<svg version="1.1" id="Ebene_1" xmlns="http://www.w3.org/2000/svg" xmlns:xlink="http://www.w3.org/1999/xlink" x="0px" y="0px"
	 viewBox="0 0 868.98 80.15" style="enable-background:new 0 0 868.98 80.15;" xml:space="preserve">
<style type="text/css">
	.st0{fill:#E30613;}
	.st1{fill-rule:evenodd;clip-rule:evenodd;fill:#E30613;}
</style>
<g>
	<path class="st0" d="M159.3,72.12h-56.64l5.58-13.2c1.28-3.04,3.12-5.18,5.52-6.42c2.4-1.24,5.54-1.86,9.42-1.86h45.24
		c-1.28,2.76-3.17,4.81-5.67,6.15c-2.5,1.34-5.55,2.05-9.15,2.13h-36l-1.68,3.96h47.28L159.3,72.12z M117.48,37.2h45.3
		c3.16,0,5.48,0.86,6.96,2.58c1.48,1.64,1.7,3.68,0.66,6.12l-0.18,0.54h-56.64L117.48,37.2z"/>
	<path class="st0" d="M226.08,63.42c-1,2.36-2.98,4.42-5.94,6.18c-2.96,1.68-6,2.52-9.12,2.52h-33.96c-3.16,0-5.48-0.84-6.96-2.52
		c-1.48-1.72-1.7-3.78-0.66-6.18l7.38-17.52c1-2.4,2.98-4.44,5.94-6.12c2.92-1.72,5.96-2.58,9.12-2.58h45.3l-3.9,9.24h-40.02
		c-1.08,0-2.12,0.12-3.12,0.36c-1,0.24-1.93,0.57-2.79,0.99c-0.86,0.42-1.61,0.92-2.25,1.5c-0.64,0.58-1.12,1.19-1.44,1.83
		l-2.88,6.72c-0.28,0.64-0.35,1.25-0.21,1.83c0.14,0.58,0.45,1.09,0.93,1.53c0.48,0.44,1.13,0.79,1.95,1.05
		c0.82,0.26,1.77,0.39,2.85,0.39h23.64c0.96,0,1.9-0.11,2.82-0.33c0.92-0.22,1.77-0.51,2.55-0.87c0.78-0.36,1.47-0.79,2.07-1.29
		c0.6-0.5,1.06-1.03,1.38-1.59h-29.88l3.48-8.16h39.24L226.08,63.42z"/>
	<path d="M321.42,72.12h-45.3c-3.16,0-5.48-0.84-6.96-2.52c-1.48-1.72-1.7-3.78-0.66-6.18l5.52-13.02h56.64l-3.54,8.28h-47.64
		l-1.68,3.96h47.64L321.42,72.12z M275.88,45.9c1-2.4,2.98-4.44,5.94-6.12c2.92-1.72,5.96-2.58,9.12-2.58h45.3l-3.9,9.24H275.7
		L275.88,45.9z"/>
	<path d="M384.48,72.12h-45.3c-3.16,0-5.48-0.84-6.96-2.52c-1.48-1.72-1.7-3.78-0.66-6.18l11.1-26.22h9l-8.76,20.64
		c-0.28,0.64-0.35,1.25-0.21,1.83c0.14,0.58,0.45,1.09,0.93,1.53c0.48,0.44,1.13,0.79,1.95,1.05c0.82,0.26,1.77,0.39,2.85,0.39
		h40.08L384.48,72.12z"/>
	<path d="M447.54,72.12h-45.3c-3.16,0-5.48-0.84-6.96-2.52c-1.48-1.72-1.7-3.78-0.66-6.18l5.52-13.02h56.64l-3.54,8.28H405.6
		l-1.68,3.96h47.64L447.54,72.12z M402,45.9c1-2.4,2.98-4.44,5.94-6.12c2.92-1.72,5.96-2.58,9.12-2.58h45.3l-3.9,9.24h-56.64
		L402,45.9z"/>
	<path d="M510.6,72.12h-45.3c-3.16,0-5.48-0.84-6.96-2.52c-1.48-1.72-1.7-3.78-0.66-6.18l7.38-17.52c1-2.4,2.98-4.44,5.94-6.12
		c2.92-1.72,5.96-2.58,9.12-2.58h45.3l-3.9,9.24H481.5c-1.08,0-2.12,0.12-3.12,0.36c-1,0.24-1.93,0.57-2.79,0.99
		c-0.86,0.42-1.61,0.92-2.25,1.5c-0.64,0.58-1.12,1.19-1.44,1.83l-2.88,6.72c-0.28,0.64-0.35,1.25-0.21,1.83
		c0.14,0.58,0.45,1.09,0.93,1.53c0.48,0.44,1.13,0.79,1.95,1.05c0.82,0.26,1.77,0.39,2.85,0.39h40.08L510.6,72.12z"/>
	<path d="M540.66,72.12l10.92-25.68h-23.64l3.9-9.24h56.64l-3.9,9.24h-24l-10.92,25.68H540.66z"/>
	<path d="M594.78,58.68l-5.7,13.44h-9l9.24-21.72h47.28l1.68-3.96H591l3.9-9.24h45.3c1.6,0,3.02,0.19,4.26,0.57
		c1.24,0.38,2.2,0.95,2.88,1.71c0.68,0.76,1.06,1.72,1.14,2.88c0.08,1.16-0.2,2.52-0.84,4.08l-1.68,3.96
		c-1.28,3.04-3.12,5.18-5.52,6.42c-2.4,1.24-5.54,1.86-9.42,1.86l5.7,13.44h-9.84l-5.7-13.44H594.78z"/>
	<path d="M654.24,45.9c1-2.4,2.98-4.44,5.94-6.12c2.92-1.72,5.96-2.58,9.12-2.58h33.96c3.16,0,5.46,0.88,6.9,2.64
		c1.48,1.68,1.72,3.72,0.72,6.12l-7.38,17.46c-1,2.36-2.98,4.42-5.94,6.18c-2.96,1.68-6,2.52-9.12,2.52h-33.96
		c-3.16,0-5.48-0.84-6.96-2.52c-1.48-1.72-1.7-3.78-0.66-6.18L654.24,45.9z M699.78,51c0.24-1.2-0.13-2.26-1.11-3.18
		c-0.98-0.92-2.55-1.38-4.71-1.38h-23.28c-1.08,0-2.12,0.12-3.12,0.36c-1,0.24-1.93,0.57-2.79,0.99c-0.86,0.42-1.61,0.92-2.25,1.5
		c-0.64,0.58-1.12,1.19-1.44,1.83l-2.88,6.72c-0.28,0.64-0.35,1.25-0.21,1.83c0.14,0.58,0.45,1.09,0.93,1.53
		c0.48,0.44,1.13,0.79,1.95,1.05c0.82,0.26,1.77,0.39,2.85,0.39h23.64c1.92,0,3.84-0.48,5.76-1.44c2.04-1.04,3.32-2.2,3.84-3.48
		L699.78,51z"/>
	<path d="M706.2,72.12l14.82-34.92h45.3c3.16,0,5.46,0.88,6.9,2.64c1.48,1.68,1.72,3.72,0.72,6.12l-11.1,26.16h-9L762.78,51
		c0.28-1.2-0.07-2.26-1.05-3.18c-0.98-0.92-2.55-1.38-4.71-1.38H726l-10.8,25.68H706.2z"/>
	<path d="M769.26,72.12l9.3-21.84h9l-9.3,21.84H769.26z M789.18,46.44h-9l3.9-9.24h9L789.18,46.44z"/>
	<path d="M841.44,72.12h-45.3c-3.16,0-5.48-0.84-6.96-2.52c-1.48-1.72-1.7-3.78-0.66-6.18l7.38-17.52c1-2.4,2.98-4.44,5.94-6.12
		c2.92-1.72,5.96-2.58,9.12-2.58h45.3l-3.9,9.24h-40.02c-1.08,0-2.12,0.12-3.12,0.36c-1,0.24-1.93,0.57-2.79,0.99
		c-0.86,0.42-1.61,0.92-2.25,1.5c-0.64,0.58-1.12,1.19-1.44,1.83l-2.88,6.72c-0.28,0.64-0.35,1.25-0.21,1.83
		c0.14,0.58,0.45,1.09,0.93,1.53c0.48,0.44,1.13,0.79,1.95,1.05c0.82,0.26,1.77,0.39,2.85,0.39h40.08L841.44,72.12z"/>
</g>
<g>
	<g>
		<g>
			<path class="st1" d="M42.61,31.88c0,0.86,0.7,1.56,1.56,1.56c0.38,0,0.75-0.14,1.03-0.39c0.34-0.3,0.53-0.73,0.53-1.18
				c0-0.86-0.7-1.56-1.56-1.56S42.61,31.01,42.61,31.88z"/>
			<path class="st1" d="M39.69,42.56c0,0.86,0.7,1.56,1.56,1.56c0.38,0,0.74-0.14,1.03-0.39c0.34-0.3,0.53-0.73,0.53-1.18
				c0-0.86-0.7-1.56-1.56-1.56S39.69,41.7,39.69,42.56z"/>
			<path class="st1" d="M38.88,57c-0.01-0.02-0.17-0.58-1.23-0.83c-1.35-0.31-2.07-0.46-2.89-0.63c-0.09-0.02-0.19-0.04-0.28-0.06
				c-0.23,0.45-0.54,0.86-0.93,1.2c-0.74,0.65-1.69,1-2.67,1c-2.23,0-4.05-1.82-4.05-4.05s1.82-4.05,4.05-4.05
				c2.2,0,3.99,1.76,4.05,3.95c0.08,0.02,0.17,0.04,0.25,0.05c0.84,0.18,1.56,0.33,2.94,0.64c1.56,0.37,2.32,1.28,2.61,1.97
				c0.62-0.3,1.22-0.6,1.82-0.92l-1.84-3.05c-0.01-0.02-0.75-1.24-1.88-1.4l-2.45-0.31c-0.43-0.03-2.82-0.28-3.78-2.12
				c-0.36-0.74-0.66-1.37-0.87-1.84c-0.23,0.04-0.46,0.06-0.69,0.06c-2.23,0-4.05-1.82-4.05-4.05s1.82-4.05,4.05-4.05
				s4.05,1.82,4.05,4.05c0,1.17-0.5,2.28-1.38,3.05c-0.05,0.04-0.1,0.08-0.15,0.12c0.21,0.46,0.49,1.06,0.84,1.76
				c0.38,0.74,1.71,0.99,2.14,1.02l0.07,0.01l2.49,0.32c2.11,0.29,3.29,2.28,3.34,2.36l1.86,3.08c0.81-0.49,1.6-1,2.37-1.53
				l-4.08-6.37c-0.42,0.14-0.86,0.22-1.31,0.22c-2.23,0-4.05-1.82-4.05-4.05s1.82-4.05,4.05-4.05s4.05,1.82,4.05,4.05
				c0,1.02-0.38,1.99-1.06,2.73l4.03,6.28c0.67-0.51,1.33-1.04,1.96-1.58c-0.73-1.04-2.14-3.05-2.6-3.67
				c-0.83-1.11-0.66-2.85-0.6-3.27c0.02-0.24,0.16-1.8,0.38-3.23c0.16-1.06-0.59-2.13-0.6-2.14l-0.04-0.05l-1.23-1.95
				c-0.44,0.16-0.9,0.24-1.37,0.24c-2.23,0-4.05-1.82-4.05-4.05s1.82-4.05,4.05-4.05s4.05,1.82,4.05,4.05
				c0,0.99-0.37,1.95-1.02,2.68l1.25,1.98c0.2,0.29,1.2,1.81,0.93,3.58c-0.22,1.45-0.36,3.11-0.36,3.13l-0.01,0.06
				c-0.07,0.52-0.05,1.45,0.21,1.81c0.46,0.61,1.74,2.43,2.5,3.52c0.73-0.69,1.43-1.4,2.09-2.12l-0.84-1.19
				c-0.16-0.21-0.98-1.37-0.92-2.69c0.03-0.7,0.1-2.85,0.13-4.18c-1.67-0.5-2.89-2.05-2.89-3.88c0-2.23,1.82-4.05,4.05-4.05
				s4.05,1.82,4.05,4.05c0,1.17-0.5,2.28-1.38,3.05c-0.52,0.46-1.16,0.77-1.83,0.91c-0.04,1.34-0.1,3.47-0.13,4.18
				c-0.02,0.55,0.38,1.21,0.52,1.4l0.02,0.03l0.57,0.81c5.75-6.93,8.43-14.89,7.21-21.03c-7.68,0-40.97,0-40.97,0v36.58
				c6.55,0,12.24-1.25,17.46-3.49L38.88,57z"/>
			<path class="st1" d="M54.93,34.58c0-0.86-0.7-1.56-1.56-1.56s-1.56,0.7-1.56,1.56c0,0.86,0.7,1.56,1.56,1.56
				c0.38,0,0.74-0.14,1.03-0.39C54.73,35.46,54.93,35.03,54.93,34.58z"/>
			<path class="st1" d="M29.31,53.62c0,0.86,0.7,1.56,1.56,1.56c0.38,0,0.75-0.14,1.03-0.39c0.34-0.3,0.53-0.73,0.53-1.18
				c0-0.86-0.7-1.56-1.56-1.56C30.01,52.06,29.31,52.76,29.31,53.62z"/>
			<path class="st1" d="M29.46,42.56c0,0.86,0.7,1.56,1.56,1.56c0.38,0,0.74-0.14,1.03-0.39c0.34-0.3,0.53-0.73,0.53-1.18
				c0-0.86-0.7-1.56-1.56-1.56S29.46,41.7,29.46,42.56z"/>
		</g>
		<path class="st1" d="M32.41,21.4c0,0,15.1-8.93,26.82-8.72c4.77,0.09,9.25,2.17,11.52,6.24c4.12,8.13-0.59,18.63-7.69,26.58
			c-6.58,7.37-14.33,12.21-14.33,12.21l5.71,1.16l-2.45,7.38c0,0,34.88-19.98,30.05-47.55C80.94,12.34,74.95,5.91,61.2,8.53
			C44.06,11.61,34.88,19.17,32.41,21.4z"/>
		<path class="st1" d="M14.44,45.19c0,0-8.6,20.68,13.17,20.6c11.07-0.22,16.66-4,16.66-4l-1.16-2.28l7.88,1.76l-2.59,7.75
			l-1.24-2.14c0,0-6.35,4.61-19.84,5.35c-13.65,0.06-15.84-10.94-15.84-10.94S9.7,53.38,14.44,45.19z"/>
	</g>
</g>
</svg>
